<mxfile host="app.diagrams.net" modified="2021-09-09T07:36:17.620Z" agent="5.0 (Windows NT 10.0; Win64; x64) AppleWebKit/537.36 (KHTML, like Gecko) Chrome/93.0.4577.63 Safari/537.36" etag="QDj8DcL0GIUbsLhv1af5" version="15.1.0" type="github">
  <diagram id="C5RBs43oDa-KdzZeNtuy" name="Page-1">
    <mxGraphModel dx="1550" dy="2004" grid="1" gridSize="10" guides="1" tooltips="1" connect="1" arrows="1" fold="1" page="1" pageScale="1" pageWidth="827" pageHeight="1169" math="0" shadow="0">
      <root>
        <mxCell id="WIyWlLk6GJQsqaUBKTNV-0" />
        <mxCell id="WIyWlLk6GJQsqaUBKTNV-1" parent="WIyWlLk6GJQsqaUBKTNV-0" />
        <mxCell id="GpJ2TpPaINr_gJn0J7bI-3" style="edgeStyle=orthogonalEdgeStyle;rounded=0;orthogonalLoop=1;jettySize=auto;html=1;entryX=0;entryY=0.5;entryDx=0;entryDy=0;" edge="1" parent="WIyWlLk6GJQsqaUBKTNV-1" source="WIyWlLk6GJQsqaUBKTNV-3" target="WIyWlLk6GJQsqaUBKTNV-6">
          <mxGeometry relative="1" as="geometry" />
        </mxCell>
        <mxCell id="WIyWlLk6GJQsqaUBKTNV-3" value="附件管理开始" style="rounded=1;whiteSpace=wrap;html=1;fontSize=12;glass=0;strokeWidth=1;shadow=0;arcSize=50;" parent="WIyWlLk6GJQsqaUBKTNV-1" vertex="1">
          <mxGeometry x="10" y="-175" width="60" height="60" as="geometry" />
        </mxCell>
        <mxCell id="WIyWlLk6GJQsqaUBKTNV-6" value="该字段有附件信息？" style="rhombus;whiteSpace=wrap;html=1;shadow=0;fontFamily=Helvetica;fontSize=12;align=center;strokeWidth=1;spacing=6;spacingTop=-4;" parent="WIyWlLk6GJQsqaUBKTNV-1" vertex="1">
          <mxGeometry x="112.5" y="-200" width="145" height="110" as="geometry" />
        </mxCell>
        <mxCell id="GpJ2TpPaINr_gJn0J7bI-6" value="新建" style="edgeStyle=orthogonalEdgeStyle;rounded=0;orthogonalLoop=1;jettySize=auto;html=1;" edge="1" parent="WIyWlLk6GJQsqaUBKTNV-1" target="GpJ2TpPaINr_gJn0J7bI-5">
          <mxGeometry relative="1" as="geometry">
            <mxPoint x="200" y="-80" as="sourcePoint" />
            <Array as="points">
              <mxPoint x="185" y="-80" />
            </Array>
          </mxGeometry>
        </mxCell>
        <mxCell id="GpJ2TpPaINr_gJn0J7bI-8" value="编辑" style="edgeStyle=orthogonalEdgeStyle;rounded=0;orthogonalLoop=1;jettySize=auto;html=1;exitX=0.5;exitY=1;exitDx=0;exitDy=0;" edge="1" parent="WIyWlLk6GJQsqaUBKTNV-1" source="WIyWlLk6GJQsqaUBKTNV-6" target="GpJ2TpPaINr_gJn0J7bI-7">
          <mxGeometry relative="1" as="geometry">
            <mxPoint x="232.5" y="-5" as="sourcePoint" />
            <Array as="points">
              <mxPoint x="185" y="-80" />
              <mxPoint x="420" y="-80" />
            </Array>
          </mxGeometry>
        </mxCell>
        <mxCell id="GpJ2TpPaINr_gJn0J7bI-20" value="" style="edgeStyle=orthogonalEdgeStyle;rounded=0;orthogonalLoop=1;jettySize=auto;html=1;" edge="1" parent="WIyWlLk6GJQsqaUBKTNV-1" source="GpJ2TpPaINr_gJn0J7bI-5" target="GpJ2TpPaINr_gJn0J7bI-19">
          <mxGeometry relative="1" as="geometry" />
        </mxCell>
        <mxCell id="GpJ2TpPaINr_gJn0J7bI-5" value="进入附件管理页面" style="whiteSpace=wrap;html=1;shadow=0;strokeWidth=1;spacing=6;spacingTop=-4;" vertex="1" parent="WIyWlLk6GJQsqaUBKTNV-1">
          <mxGeometry x="125" y="115" width="120" height="60" as="geometry" />
        </mxCell>
        <mxCell id="GpJ2TpPaINr_gJn0J7bI-11" style="edgeStyle=orthogonalEdgeStyle;rounded=0;orthogonalLoop=1;jettySize=auto;html=1;entryX=0.5;entryY=0;entryDx=0;entryDy=0;" edge="1" parent="WIyWlLk6GJQsqaUBKTNV-1" source="GpJ2TpPaINr_gJn0J7bI-7" target="GpJ2TpPaINr_gJn0J7bI-5">
          <mxGeometry relative="1" as="geometry">
            <Array as="points">
              <mxPoint x="420" y="60" />
              <mxPoint x="185" y="60" />
            </Array>
          </mxGeometry>
        </mxCell>
        <mxCell id="GpJ2TpPaINr_gJn0J7bI-12" value="进入" style="edgeLabel;html=1;align=center;verticalAlign=middle;resizable=0;points=[];" vertex="1" connectable="0" parent="GpJ2TpPaINr_gJn0J7bI-11">
          <mxGeometry x="-0.0731" y="-4" relative="1" as="geometry">
            <mxPoint as="offset" />
          </mxGeometry>
        </mxCell>
        <mxCell id="GpJ2TpPaINr_gJn0J7bI-7" value="将已有的附件信息收集进缓存" style="ellipse;whiteSpace=wrap;html=1;shadow=0;strokeWidth=1;spacing=6;spacingTop=-4;" vertex="1" parent="WIyWlLk6GJQsqaUBKTNV-1">
          <mxGeometry x="340" y="-50" width="120" height="60" as="geometry" />
        </mxCell>
        <mxCell id="GpJ2TpPaINr_gJn0J7bI-22" value="编辑" style="edgeStyle=orthogonalEdgeStyle;rounded=0;orthogonalLoop=1;jettySize=auto;html=1;" edge="1" parent="WIyWlLk6GJQsqaUBKTNV-1" source="GpJ2TpPaINr_gJn0J7bI-19" target="GpJ2TpPaINr_gJn0J7bI-21">
          <mxGeometry relative="1" as="geometry" />
        </mxCell>
        <mxCell id="GpJ2TpPaINr_gJn0J7bI-24" value="新增" style="edgeStyle=orthogonalEdgeStyle;rounded=0;orthogonalLoop=1;jettySize=auto;html=1;" edge="1" parent="WIyWlLk6GJQsqaUBKTNV-1" source="GpJ2TpPaINr_gJn0J7bI-19" target="GpJ2TpPaINr_gJn0J7bI-23">
          <mxGeometry relative="1" as="geometry" />
        </mxCell>
        <mxCell id="GpJ2TpPaINr_gJn0J7bI-19" value="新建/编辑" style="rhombus;whiteSpace=wrap;html=1;shadow=0;strokeWidth=1;spacing=6;spacingTop=-4;" vertex="1" parent="WIyWlLk6GJQsqaUBKTNV-1">
          <mxGeometry x="145" y="245" width="80" height="65" as="geometry" />
        </mxCell>
        <mxCell id="GpJ2TpPaINr_gJn0J7bI-27" value="" style="edgeStyle=orthogonalEdgeStyle;rounded=0;orthogonalLoop=1;jettySize=auto;html=1;entryX=0.5;entryY=0;entryDx=0;entryDy=0;" edge="1" parent="WIyWlLk6GJQsqaUBKTNV-1" source="GpJ2TpPaINr_gJn0J7bI-21" target="GpJ2TpPaINr_gJn0J7bI-28">
          <mxGeometry relative="1" as="geometry">
            <mxPoint x="185" y="690" as="targetPoint" />
          </mxGeometry>
        </mxCell>
        <mxCell id="GpJ2TpPaINr_gJn0J7bI-21" value="展示出附件信息" style="whiteSpace=wrap;html=1;shadow=0;strokeWidth=1;spacing=6;spacingTop=-4;" vertex="1" parent="WIyWlLk6GJQsqaUBKTNV-1">
          <mxGeometry x="125" y="530" width="120" height="60" as="geometry" />
        </mxCell>
        <mxCell id="GpJ2TpPaINr_gJn0J7bI-31" value="上传完成" style="edgeStyle=orthogonalEdgeStyle;rounded=0;orthogonalLoop=1;jettySize=auto;html=1;" edge="1" parent="WIyWlLk6GJQsqaUBKTNV-1" source="GpJ2TpPaINr_gJn0J7bI-23" target="GpJ2TpPaINr_gJn0J7bI-30">
          <mxGeometry relative="1" as="geometry" />
        </mxCell>
        <mxCell id="GpJ2TpPaINr_gJn0J7bI-23" value="附件上传" style="whiteSpace=wrap;html=1;shadow=0;strokeWidth=1;spacing=6;spacingTop=-4;" vertex="1" parent="WIyWlLk6GJQsqaUBKTNV-1">
          <mxGeometry x="380" y="247.5" width="120" height="60" as="geometry" />
        </mxCell>
        <mxCell id="GpJ2TpPaINr_gJn0J7bI-41" style="edgeStyle=orthogonalEdgeStyle;rounded=0;orthogonalLoop=1;jettySize=auto;html=1;exitX=1;exitY=0.5;exitDx=0;exitDy=0;entryX=1;entryY=0.5;entryDx=0;entryDy=0;" edge="1" parent="WIyWlLk6GJQsqaUBKTNV-1" source="GpJ2TpPaINr_gJn0J7bI-28" target="GpJ2TpPaINr_gJn0J7bI-30">
          <mxGeometry relative="1" as="geometry">
            <Array as="points">
              <mxPoint x="560" y="660" />
              <mxPoint x="560" y="380" />
            </Array>
          </mxGeometry>
        </mxCell>
        <mxCell id="GpJ2TpPaINr_gJn0J7bI-42" value="是" style="edgeLabel;html=1;align=center;verticalAlign=middle;resizable=0;points=[];" vertex="1" connectable="0" parent="GpJ2TpPaINr_gJn0J7bI-41">
          <mxGeometry x="-0.7107" y="-3" relative="1" as="geometry">
            <mxPoint as="offset" />
          </mxGeometry>
        </mxCell>
        <mxCell id="GpJ2TpPaINr_gJn0J7bI-58" value="单个文件更新" style="edgeLabel;html=1;align=center;verticalAlign=middle;resizable=0;points=[];" vertex="1" connectable="0" parent="GpJ2TpPaINr_gJn0J7bI-41">
          <mxGeometry x="-0.6891" y="-2" relative="1" as="geometry">
            <mxPoint as="offset" />
          </mxGeometry>
        </mxCell>
        <mxCell id="GpJ2TpPaINr_gJn0J7bI-44" value="" style="edgeStyle=orthogonalEdgeStyle;rounded=0;orthogonalLoop=1;jettySize=auto;html=1;entryX=0;entryY=0.5;entryDx=0;entryDy=0;" edge="1" parent="WIyWlLk6GJQsqaUBKTNV-1" source="GpJ2TpPaINr_gJn0J7bI-28" target="GpJ2TpPaINr_gJn0J7bI-49">
          <mxGeometry relative="1" as="geometry">
            <Array as="points">
              <mxPoint x="185" y="750" />
            </Array>
          </mxGeometry>
        </mxCell>
        <mxCell id="GpJ2TpPaINr_gJn0J7bI-28" value="是否重新上传附件" style="rhombus;whiteSpace=wrap;html=1;shadow=0;strokeWidth=1;spacing=6;spacingTop=-4;" vertex="1" parent="WIyWlLk6GJQsqaUBKTNV-1">
          <mxGeometry x="120" y="620" width="130" height="80" as="geometry" />
        </mxCell>
        <mxCell id="GpJ2TpPaINr_gJn0J7bI-34" value="是" style="edgeStyle=orthogonalEdgeStyle;rounded=0;orthogonalLoop=1;jettySize=auto;html=1;" edge="1" parent="WIyWlLk6GJQsqaUBKTNV-1" source="GpJ2TpPaINr_gJn0J7bI-30" target="GpJ2TpPaINr_gJn0J7bI-33">
          <mxGeometry relative="1" as="geometry" />
        </mxCell>
        <mxCell id="GpJ2TpPaINr_gJn0J7bI-35" style="edgeStyle=orthogonalEdgeStyle;rounded=0;orthogonalLoop=1;jettySize=auto;html=1;entryX=0.5;entryY=0;entryDx=0;entryDy=0;" edge="1" parent="WIyWlLk6GJQsqaUBKTNV-1" source="GpJ2TpPaINr_gJn0J7bI-30" target="GpJ2TpPaINr_gJn0J7bI-21">
          <mxGeometry relative="1" as="geometry">
            <Array as="points">
              <mxPoint x="185" y="400" />
            </Array>
          </mxGeometry>
        </mxCell>
        <mxCell id="GpJ2TpPaINr_gJn0J7bI-36" value="否" style="edgeLabel;html=1;align=center;verticalAlign=middle;resizable=0;points=[];" vertex="1" connectable="0" parent="GpJ2TpPaINr_gJn0J7bI-35">
          <mxGeometry x="-0.5484" y="2" relative="1" as="geometry">
            <mxPoint as="offset" />
          </mxGeometry>
        </mxCell>
        <mxCell id="GpJ2TpPaINr_gJn0J7bI-30" value="需要解析OCR/脱敏？" style="rhombus;whiteSpace=wrap;html=1;shadow=0;strokeWidth=1;spacing=6;spacingTop=-4;" vertex="1" parent="WIyWlLk6GJQsqaUBKTNV-1">
          <mxGeometry x="390" y="340" width="100" height="80" as="geometry" />
        </mxCell>
        <mxCell id="GpJ2TpPaINr_gJn0J7bI-37" style="edgeStyle=orthogonalEdgeStyle;rounded=0;orthogonalLoop=1;jettySize=auto;html=1;entryX=0.5;entryY=0;entryDx=0;entryDy=0;" edge="1" parent="WIyWlLk6GJQsqaUBKTNV-1" source="GpJ2TpPaINr_gJn0J7bI-33" target="GpJ2TpPaINr_gJn0J7bI-21">
          <mxGeometry relative="1" as="geometry" />
        </mxCell>
        <mxCell id="GpJ2TpPaINr_gJn0J7bI-38" value="是" style="edgeLabel;html=1;align=center;verticalAlign=middle;resizable=0;points=[];" vertex="1" connectable="0" parent="GpJ2TpPaINr_gJn0J7bI-37">
          <mxGeometry x="-0.3149" y="-2" relative="1" as="geometry">
            <mxPoint as="offset" />
          </mxGeometry>
        </mxCell>
        <mxCell id="GpJ2TpPaINr_gJn0J7bI-40" value="" style="edgeStyle=orthogonalEdgeStyle;rounded=0;orthogonalLoop=1;jettySize=auto;html=1;" edge="1" parent="WIyWlLk6GJQsqaUBKTNV-1" source="GpJ2TpPaINr_gJn0J7bI-33" target="GpJ2TpPaINr_gJn0J7bI-39">
          <mxGeometry relative="1" as="geometry" />
        </mxCell>
        <mxCell id="GpJ2TpPaINr_gJn0J7bI-59" value="失败" style="edgeLabel;html=1;align=center;verticalAlign=middle;resizable=0;points=[];" vertex="1" connectable="0" parent="GpJ2TpPaINr_gJn0J7bI-40">
          <mxGeometry x="-0.2494" y="2" relative="1" as="geometry">
            <mxPoint as="offset" />
          </mxGeometry>
        </mxCell>
        <mxCell id="GpJ2TpPaINr_gJn0J7bI-33" value="解析完成？" style="rhombus;whiteSpace=wrap;html=1;shadow=0;strokeWidth=1;spacing=6;spacingTop=-4;" vertex="1" parent="WIyWlLk6GJQsqaUBKTNV-1">
          <mxGeometry x="390" y="460" width="100" height="80" as="geometry" />
        </mxCell>
        <mxCell id="GpJ2TpPaINr_gJn0J7bI-39" value="错误退出" style="ellipse;whiteSpace=wrap;html=1;shadow=0;strokeWidth=1;spacing=6;spacingTop=-4;" vertex="1" parent="WIyWlLk6GJQsqaUBKTNV-1">
          <mxGeometry x="660" y="470" width="120" height="60" as="geometry" />
        </mxCell>
        <mxCell id="GpJ2TpPaINr_gJn0J7bI-57" value="" style="edgeStyle=orthogonalEdgeStyle;rounded=0;orthogonalLoop=1;jettySize=auto;html=1;" edge="1" parent="WIyWlLk6GJQsqaUBKTNV-1" source="GpJ2TpPaINr_gJn0J7bI-43" target="GpJ2TpPaINr_gJn0J7bI-56">
          <mxGeometry relative="1" as="geometry" />
        </mxCell>
        <mxCell id="GpJ2TpPaINr_gJn0J7bI-43" value="完成，返回表单录入界面" style="ellipse;whiteSpace=wrap;html=1;shadow=0;strokeWidth=1;spacing=6;spacingTop=-4;" vertex="1" parent="WIyWlLk6GJQsqaUBKTNV-1">
          <mxGeometry x="125" y="841" width="120" height="60" as="geometry" />
        </mxCell>
        <mxCell id="GpJ2TpPaINr_gJn0J7bI-48" value="是" style="edgeStyle=orthogonalEdgeStyle;rounded=0;orthogonalLoop=1;jettySize=auto;html=1;" edge="1" parent="WIyWlLk6GJQsqaUBKTNV-1" source="GpJ2TpPaINr_gJn0J7bI-49" target="GpJ2TpPaINr_gJn0J7bI-51">
          <mxGeometry relative="1" as="geometry" />
        </mxCell>
        <mxCell id="GpJ2TpPaINr_gJn0J7bI-52" style="edgeStyle=orthogonalEdgeStyle;rounded=0;orthogonalLoop=1;jettySize=auto;html=1;exitX=0.5;exitY=1;exitDx=0;exitDy=0;" edge="1" parent="WIyWlLk6GJQsqaUBKTNV-1" source="GpJ2TpPaINr_gJn0J7bI-49" target="GpJ2TpPaINr_gJn0J7bI-43">
          <mxGeometry relative="1" as="geometry">
            <mxPoint x="180" y="960" as="targetPoint" />
          </mxGeometry>
        </mxCell>
        <mxCell id="GpJ2TpPaINr_gJn0J7bI-53" value="否" style="edgeLabel;html=1;align=center;verticalAlign=middle;resizable=0;points=[];" vertex="1" connectable="0" parent="GpJ2TpPaINr_gJn0J7bI-52">
          <mxGeometry x="-0.216" y="-1" relative="1" as="geometry">
            <mxPoint as="offset" />
          </mxGeometry>
        </mxCell>
        <mxCell id="GpJ2TpPaINr_gJn0J7bI-49" value="是否做过色块处理" style="rhombus;whiteSpace=wrap;html=1;shadow=0;strokeWidth=1;spacing=6;spacingTop=-4;" vertex="1" parent="WIyWlLk6GJQsqaUBKTNV-1">
          <mxGeometry x="360" y="710" width="125" height="80" as="geometry" />
        </mxCell>
        <mxCell id="GpJ2TpPaINr_gJn0J7bI-50" style="edgeStyle=orthogonalEdgeStyle;rounded=0;orthogonalLoop=1;jettySize=auto;html=1;" edge="1" parent="WIyWlLk6GJQsqaUBKTNV-1" source="GpJ2TpPaINr_gJn0J7bI-51" target="GpJ2TpPaINr_gJn0J7bI-43">
          <mxGeometry relative="1" as="geometry">
            <mxPoint x="185" y="860" as="targetPoint" />
            <Array as="points">
              <mxPoint x="653" y="860" />
              <mxPoint x="185" y="860" />
            </Array>
          </mxGeometry>
        </mxCell>
        <mxCell id="GpJ2TpPaINr_gJn0J7bI-54" value="处理完成" style="edgeLabel;html=1;align=center;verticalAlign=middle;resizable=0;points=[];" vertex="1" connectable="0" parent="GpJ2TpPaINr_gJn0J7bI-50">
          <mxGeometry x="-0.2" y="-1" relative="1" as="geometry">
            <mxPoint as="offset" />
          </mxGeometry>
        </mxCell>
        <mxCell id="GpJ2TpPaINr_gJn0J7bI-51" value="图片缓存处理" style="whiteSpace=wrap;html=1;shadow=0;strokeWidth=1;spacing=6;spacingTop=-4;" vertex="1" parent="WIyWlLk6GJQsqaUBKTNV-1">
          <mxGeometry x="625" y="720" width="120" height="60" as="geometry" />
        </mxCell>
        <mxCell id="GpJ2TpPaINr_gJn0J7bI-56" value="表单录入数据，&lt;br&gt;全量更新图片，&lt;br&gt;OCR数据" style="shape=process;whiteSpace=wrap;html=1;backgroundOutline=1;shadow=0;strokeWidth=1;spacing=6;spacingTop=-4;" vertex="1" parent="WIyWlLk6GJQsqaUBKTNV-1">
          <mxGeometry x="125" y="941" width="120" height="60" as="geometry" />
        </mxCell>
      </root>
    </mxGraphModel>
  </diagram>
</mxfile>
